PathFileType	4	(X/Y/Z)	c:/Users/goper/Files/vsCode/490R/osim_files/C11/C11_Slow_06.trc
DataRate	CameraRate	NumFrames	NumMarkers	Units                	OrigDataRate	OrigDataStartFrame	OrigNumFrames
120.00	120.00	4	36	mm	120.0	595	1188
                Frame#	Time	LPSIS			LASIS			LTH1			LTH2			LTH3			LTH4			LLFE			LMFE			LSH1			LSH2			LSH3			LSH4			LLMAL			LMMAL			LCAL			LMTP5			LTOE			LMTP1			RPSIS			RASIS			RTH1			RTH2			RTH3			RTH4			RLFE			RMFE			RSH1			RSH2			RSH3			RSH4			RLMAL			RMMAL			RCAL			RMTP1			RTOE			RMTP5		
		X1	Y1	Z1	X2	Y2	Z2	X3	Y3	Z3	X4	Y4	Z4	X5	Y5	Z5	X6	Y6	Z6	X7	Y7	Z7	X8	Y8	Z8	X9	Y9	Z9	X10	Y10	Z10	X11	Y11	Z11	X12	Y12	Z12	X13	Y13	Z13	X14	Y14	Z14	X15	Y15	Z15	X16	Y16	Z16	X17	Y17	Z17	X18	Y18	Z18	X19	Y19	Z19	X20	Y20	Z20	X21	Y21	Z21	X22	Y22	Z22	X23	Y23	Z23	X24	Y24	Z24	X25	Y25	Z25	X26	Y26	Z26	X27	Y27	Z27	X28	Y28	Z28	X29	Y29	Z29	X30	Y30	Z30	X31	Y31	Z31	X32	Y32	Z32	X33	Y33	Z33	X34	Y34	Z34	X35	Y35	Z35	X36	Y36	Z36

595	4.95000	-286.36108	962.51300	338.14667	-459.53882	967.76147	412.13516	-378.20938	567.50519	449.04599	-384.61533	520.40649	449.20456	-434.76221	569.61230	470.37244	-433.51743	524.31537	465.94537	-403.02328	461.62018	458.88666	-437.23639	450.41351	346.69681	-305.89459	435.84036	469.92935	-270.11014	409.90414	470.30121	-338.30386	383.85001	476.41812	-297.64462	364.12036	475.55106	-58.28304	243.64056	425.53879	-91.26572	229.99474	333.79813	-7.18256	286.17114	368.96542	-46.89597	117.29160	443.45297	-102.26021	66.32011	378.43954	-74.85937	98.40224	333.09863	-291.08307	982.01508	256.29016	-459.61090	972.61493	181.23117	-494.06271	616.72369	154.18132	-512.63873	577.91919	162.74666	-553.01270	637.55792	163.67593	-561.35388	595.54419	170.88261	-559.53943	509.11929	187.55574	-530.37793	491.74930	295.86621	-509.65067	396.21216	168.05403	-516.08783	351.11096	171.88727	-571.16870	398.66220	182.18207	-568.39990	351.29257	182.87007	-531.11383	95.80351	229.28133	-557.90643	106.81114	325.06934	-468.96249	59.76764	284.15326	-685.92230	51.01637	305.72427	-689.98169	65.17441	254.98643	-648.03784	41.62150	194.49606
596	4.95833	-295.06808	963.48053	337.48090	-468.28302	969.10870	411.63214	-395.08643	568.10944	447.57266	-403.11957	521.11792	447.81509	-451.16507	571.38483	469.79254	-451.08884	526.09869	465.34106	-422.87598	463.48981	458.87442	-456.43738	452.45279	345.77200	-326.97928	437.96356	470.21570	-290.88260	412.28687	470.66324	-359.03625	385.71875	476.05585	-318.16687	366.28186	475.52191	-78.19627	250.24614	426.76138	-108.80530	234.57204	334.48959	-27.80721	294.45331	370.66318	-62.21700	124.79824	445.84125	-114.31888	71.35018	380.02234	-86.37205	103.68360	335.08362	-299.86060	983.35059	255.62172	-468.47324	974.14563	180.74867	-500.73773	617.26990	153.89375	-519.17633	578.59589	162.03497	-559.70544	637.74628	163.66057	-567.63855	595.69318	170.79808	-565.28925	509.38422	186.92294	-535.23828	491.97980	295.85822	-512.57538	396.75452	168.83296	-518.50543	351.46274	172.78931	-574.54993	398.21829	182.10551	-570.87738	350.85733	182.86267	-530.31866	96.29403	229.05768	-557.91199	106.83949	325.13379	-468.95175	59.83302	284.15457	-685.97711	51.02026	305.75970	-689.98792	65.13487	255.03038	-648.04614	41.65847	194.52431
597	4.96667	-303.83463	964.62012	336.85910	-477.02179	970.69238	411.13647	-411.62814	569.29987	445.97339	-420.05261	522.30505	446.39886	-467.48663	573.54828	469.07330	-468.45230	528.18317	464.59262	-442.42328	465.77170	458.68326	-475.22906	454.94888	344.81284	-347.48135	440.37296	470.25021	-311.33856	414.87018	470.54202	-379.33844	388.02518	475.61127	-338.56210	368.66644	475.30951	-97.09352	255.98148	427.65616	-126.09181	238.91841	335.26819	-46.88474	300.71674	371.81024	-79.03186	131.39964	448.43762	-129.13536	76.44963	382.40506	-100.91624	108.42520	337.45523	-308.70758	984.64233	254.98212	-477.38586	975.70807	180.16522	-507.08936	617.79279	153.64801	-524.72394	578.96680	162.34044	-566.15436	637.83234	163.77641	-573.69043	595.81860	170.81683	-569.88293	509.17447	187.01508	-539.57648	492.25360	295.80762	-515.34277	397.12213	169.46007	-520.75983	351.73987	173.41669	-577.48663	397.76868	182.01190	-573.25519	350.40741	182.81938	-530.39154	96.27480	229.16492	-557.90991	106.84209	325.19473	-468.93158	59.83468	284.14828	-685.99963	51.00268	305.78296	-690.00153	65.04926	255.03763	-648.02191	41.65110	194.52600
598	4.97500	-312.54770	965.97729	336.19833	-485.66263	972.41357	410.64865	-428.23581	570.65955	444.49301	-438.05301	523.97925	445.03793	-483.57095	576.07666	468.29129	-485.59659	530.73077	463.83884	-461.56149	468.50266	458.25934	-494.01187	457.81995	343.94360	-367.60431	443.10379	470.17294	-331.47510	417.64658	470.72699	-399.36313	390.78351	475.17151	-358.56271	371.47107	475.25458	-115.44606	261.47665	428.61630	-143.97064	243.12639	336.23325	-64.99258	305.47977	372.40427	-97.53716	137.26062	451.03586	-147.21989	81.05839	385.47339	-118.59653	112.58575	340.35556	-317.34305	986.10046	254.38434	-485.96347	977.27759	179.71407	-513.17383	618.32660	153.35616	-530.12665	579.44702	162.18941	-572.22229	637.91632	163.84155	-579.23633	595.85370	170.79012	-574.18005	508.92188	187.02312	-543.64471	492.40677	295.73907	-518.24707	397.35287	169.77428	-523.08557	351.98172	173.75682	-580.19232	397.21420	181.86177	-575.55225	350.05960	182.76749	-531.17572	95.84048	229.65675	-557.88470	106.82298	325.24490	-468.98474	59.82948	284.02936	-685.93066	50.88915	305.85220	-689.98456	64.93385	255.05214	-647.97821	41.63750	194.52467
